<?xml version="1.0" encoding="utf-8"?>
<svg version="1.0" width="88.000000pt" height="134.000000pt" viewBox="0 0 88.000000 134.000000" preserveAspectRatio="xMidYMid meet" xmlns="http://www.w3.org/2000/svg">
  <defs/>
  <rect x="0.858" y="0.483" width="86.154" height="133.035" style="stroke: rgb(0, 0, 0); fill: rgb(248, 179, 0);"/>
  <g transform="matrix(0.1, 0, 0, -0.1, 0, 134)" fill="#000000" stroke="none">
    <path d="M 0 670 L 0 0 L 440 0 L 880 0 L 880 670 L 880 1340 L 440 1340 L 0 1340 L 0 670 Z M 309 1011 C 431 863 459 823 454 805 C 451 792 416 686 375 569 L 303 350.084 L 160 349 C 160 349 107 260 106 260 C 104 260 106 1208 108 1230 C 111 1250 131 1228 309 1011 Z M 629 622 C 708 526 770 447 768 446 C 767 445 698 406 615 360 C 533 315 447 267 424 254 L 384 230 L 352 285 L 321 340 L 391 546 C 472 784 479 804 484 799 C 485 797 551 717 629 622 Z M 778 430 C 779 430 780 103.91 780 103.91 L 324.17 103.756 C 324.17 103.756 330.077 110.231 380.383 202.36 C 383.028 207.203 388.798 210.533 393.946 213.66 C 450.527 248.029 522.124 286.287 580 319 C 687 380 776 429 778 430 Z M 305 330 L 370 218 L 300 103 L 175.615 103.916 C 175.615 103.916 110 212 110 220 C 110 227 172 330 172 330 L 305 330 Z" style="fill-rule: nonzero;"/>
  </g>
  <ellipse style="stroke: rgb(0, 0, 0);" cx="24.375" cy="112.198" rx="4.041" ry="4.041"/>
</svg>